# xmcd
#
# Track frame offsets:
#	150
#	13814
#	32407
#	51688
#	69715
#	89507
#	106398
#	121668
#	141586
#	161584
#	181674
#	204536
#	220694
#	242344
#	263439
#
# Disc length: 3803 seconds
#
# Revision: 0
# Processed by: cddbd v1.5.2PL0 Copyright (c) Steve Scherf et al.
# Submitted via: EasyCDDAExtractor 15.3.0.1
#
DISCID=cf0ed90f
DTITLE=Various Artist - 2012 Steppin' Music Vol. 14
DYEAR=2012
DGENRE=R&B
TTITLE0=Kanye West feat Jay-Z - Otis [Ext.]
TTITLE1=Randy Crawford - Cajun Moon
TTITLE2=Oleta Adams - Rhythm Of Life [Gospella mix]
TTITLE3=Atlantic Starr - My Sugar
TTITLE4=Phyllis Hyman - No One Can Love Your More
TTITLE5=Blue Note DJ - Chicago
TTITLE6=Donny Hathaway - Love, Love Love
TTITLE7=Gravity - Breeze
TTITLE8=Dionne - Allergies
TTITLE9=Cardell - What Does It Mean
TTITLE10=Frank Ocean - Novacane
TTITLE11=The Impressions - Sooner Or Later
TTITLE12=Chris Ingram - Down
TTITLE13=Lanee' Battle - What It Takes
TTITLE14=Alex Cortiz - Afterworld
EXTD=
EXTT0=
EXTT1=
EXTT2=
EXTT3=
EXTT4=
EXTT5=
EXTT6=
EXTT7=
EXTT8=
EXTT9=
EXTT10=
EXTT11=
EXTT12=
EXTT13=
EXTT14=
PLAYORDER=
